<?xml version="1.0" encoding="utf-8"?>
<!-- Generator: Adobe Illustrator 25.0.1, SVG Export Plug-In . SVG Version: 6.00 Build 0)  -->
<svg version="1.1" xmlns="http://www.w3.org/2000/svg" xmlns:xlink="http://www.w3.org/1999/xlink" x="0px" y="0px"
	 viewBox="0 0 492 492" style="enable-background:new 0 0 492 492;" xml:space="preserve">
<style type="text/css">
	.st0{fill-rule:evenodd;clip-rule:evenodd;fill:#D0D381;}
	.st1{fill:#013668;}
	.st2{fill-rule:evenodd;clip-rule:evenodd;fill:#FFFFFE;}
	.st3{fill-rule:evenodd;clip-rule:evenodd;fill:#013668;}
</style>
<g id="Layer_1">
	<path class="st0" d="M138.7,431.06h215.13c16.86,0,30.66-13.8,30.66-30.66V93.08c0-16.86-13.8-30.66-30.66-30.66H196.31
		l-88.28,88.28v249.7C108.04,417.26,121.83,431.06,138.7,431.06z"/>
	<path class="st1" d="M138.7,428.66h215.13c7.77,0,14.83-3.18,19.96-8.3c5.12-5.12,8.3-12.19,8.3-19.96V93.08
		c0-7.77-3.18-14.83-8.3-19.96c-5.12-5.12-12.19-8.3-19.96-8.3H197.31l-86.87,86.87V400.4c0,7.77,3.18,14.83,8.3,19.96
		C123.86,425.48,130.93,428.66,138.7,428.66L138.7,428.66z M353.82,433.46H138.7c-9.09,0-17.36-3.72-23.35-9.71
		c-5.99-5.99-9.71-14.26-9.71-23.35V150.7h0c0-0.61,0.23-1.23,0.7-1.7l88.25-88.25c0.44-0.45,1.05-0.73,1.72-0.73h157.51
		c9.09,0,17.36,3.72,23.35,9.71c5.99,5.99,9.71,14.26,9.71,23.35V400.4c0,9.09-3.72,17.36-9.71,23.35
		C371.18,429.74,362.92,433.46,353.82,433.46z"/>
	<path class="st2" d="M108.04,150.7h57.62c16.86,0,30.66-13.8,30.66-30.66V62.42L108.04,150.7z"/>
	<path class="st1" d="M113.83,148.3h51.82c7.77,0,14.83-3.18,19.96-8.3c5.12-5.12,8.3-12.19,8.3-19.96V68.21L113.83,148.3
		L113.83,148.3z M165.65,153.1h-57.62v0c-0.61,0-1.23-0.23-1.7-0.7c-0.94-0.94-0.94-2.46,0-3.39l88.25-88.25
		c0.44-0.45,1.05-0.73,1.72-0.73c1.33,0,2.4,1.07,2.4,2.4v57.62c0,9.09-3.72,17.36-9.71,23.35
		C183.01,149.38,174.75,153.1,165.65,153.1z"/>
	<path class="st2" d="M146.52,231.76H346c8.92,0,16.22,7.3,16.22,16.22v85.79c0,8.92-7.3,16.22-16.22,16.22H146.52
		c-8.92,0-16.22-7.3-16.22-16.22v-85.79C130.3,239.06,137.6,231.76,146.52,231.76z"/>
	<path class="st1" d="M146.52,229.36H346c5.12,0,9.78,2.09,13.15,5.47c3.37,3.37,5.47,8.03,5.47,13.15v85.79
		c0,5.12-2.09,9.78-5.47,13.15c-3.37,3.37-8.03,5.47-13.15,5.47H146.52c-5.12,0-9.78-2.09-13.15-5.47
		c-3.37-3.37-5.47-8.03-5.47-13.15v-85.79c0-5.12,2.09-9.78,5.47-13.15C136.74,231.45,141.39,229.36,146.52,229.36L146.52,229.36z
		 M346,234.16H146.52c-3.8,0-7.25,1.56-9.76,4.06c-2.51,2.51-4.06,5.96-4.06,9.76v85.79c0,3.8,1.56,7.25,4.06,9.76
		c2.51,2.51,5.96,4.06,9.76,4.06H346c3.8,0,7.25-1.56,9.76-4.06c2.51-2.51,4.06-5.96,4.06-9.76v-85.79c0-3.8-1.56-7.25-4.06-9.76
		C353.26,235.72,349.8,234.16,346,234.16z"/>
	<g>
		<path class="st3" d="M191.39,290.67c0-4.16,0.66-7.2,1.97-9.15c1.73-2.61,4.22-3.92,7.46-3.92c1.44,0,2.73,0.29,3.9,0.89
			c1.16,0.59,2.14,1.44,2.94,2.53c0.49,0.66,0.95,1.7,1.39,3.11l12.66-2.82c-1.62-4.89-4.1-8.52-7.45-10.89
			c-3.35-2.37-7.94-3.54-13.78-3.54c-7.46,0-13.24,2.06-17.32,6.19c-4.08,4.12-6.12,10.02-6.12,17.7c0,5.76,1.17,10.48,3.48,14.17
			c2.32,3.69,5.09,6.28,8.28,7.75c3.19,1.46,7.31,2.19,12.36,2.19c4.15,0,7.57-0.59,10.26-1.8c2.69-1.2,4.95-2.98,6.76-5.35
			c1.81-2.37,3.14-5.3,3.99-8.82l-12.56-3.8c-0.64,2.94-1.65,5.17-3.06,6.71c-1.4,1.54-3.48,2.31-6.22,2.31
			c-2.82,0-5.01-0.95-6.58-2.86C192.17,299.35,191.39,295.83,191.39,290.67z"/>
		<path class="st3" d="M267.18,280.7c-0.59-4.81-2.44-8.32-5.55-10.52c-3.11-2.2-7.64-3.31-13.57-3.31c-4.83,0-8.63,0.6-11.41,1.81
			c-2.78,1.22-4.85,2.88-6.23,5c-1.38,2.12-2.07,4.38-2.07,6.76c0,3.63,1.35,6.61,4.05,8.95c2.68,2.34,7.16,4.21,13.45,5.63
			c3.84,0.84,6.29,1.74,7.34,2.69c1.06,0.95,1.58,2.03,1.58,3.23c0,1.26-0.55,2.38-1.65,3.34c-1.11,0.96-2.69,1.44-4.73,1.44
			c-2.74,0-4.86-0.93-6.33-2.81c-0.91-1.17-1.51-2.85-1.8-5.07l-13.64,0.85c0.4,4.69,2.12,8.54,5.16,11.58
			c3.04,3.05,8.5,4.56,16.38,4.56c4.49,0,8.22-0.65,11.17-1.94c2.96-1.3,5.26-3.2,6.9-5.71c1.64-2.51,2.47-5.25,2.47-8.22
			c0-2.54-0.63-4.83-1.86-6.87c-1.23-2.05-3.21-3.76-5.92-5.14c-2.71-1.38-7.19-2.75-13.46-4.1c-2.54-0.53-4.14-1.09-4.82-1.71
			c-0.69-0.59-1.04-1.25-1.04-1.99c0-1.01,0.42-1.88,1.26-2.58c0.84-0.71,2.1-1.06,3.77-1.06c2.02,0,3.61,0.48,4.75,1.42
			c1.16,0.95,1.91,2.47,2.27,4.56L267.18,280.7z"/>
		<path class="st3" d="M313.98,280.7c-0.59-4.81-2.44-8.32-5.55-10.52c-3.11-2.2-7.64-3.31-13.57-3.31c-4.83,0-8.63,0.6-11.41,1.81
			c-2.78,1.22-4.85,2.88-6.23,5c-1.38,2.12-2.07,4.38-2.07,6.76c0,3.63,1.35,6.61,4.05,8.95c2.68,2.34,7.16,4.21,13.45,5.63
			c3.85,0.84,6.29,1.74,7.34,2.69c1.06,0.95,1.58,2.03,1.58,3.23c0,1.26-0.55,2.38-1.65,3.34c-1.11,0.96-2.69,1.44-4.73,1.44
			c-2.74,0-4.86-0.93-6.33-2.81c-0.91-1.17-1.51-2.85-1.8-5.07l-13.64,0.85c0.4,4.69,2.12,8.54,5.16,11.58
			c3.04,3.05,8.5,4.56,16.39,4.56c4.49,0,8.22-0.65,11.17-1.94c2.96-1.3,5.26-3.2,6.9-5.71c1.64-2.51,2.47-5.25,2.47-8.22
			c0-2.54-0.63-4.83-1.86-6.87c-1.23-2.05-3.21-3.76-5.92-5.14c-2.71-1.38-7.19-2.75-13.46-4.1c-2.54-0.53-4.14-1.09-4.82-1.71
			c-0.69-0.59-1.04-1.25-1.04-1.99c0-1.01,0.42-1.88,1.26-2.58c0.84-0.71,2.09-1.06,3.77-1.06c2.02,0,3.61,0.48,4.75,1.42
			c1.16,0.95,1.91,2.47,2.27,4.56L313.98,280.7z"/>
	</g>
</g>
<g id="Master_Layer_9">
</g>
</svg>
