<?xml version="1.0" encoding="utf-8"?>
<!-- Generator: Adobe Illustrator 25.0.1, SVG Export Plug-In . SVG Version: 6.00 Build 0)  -->
<svg version="1.1" xmlns="http://www.w3.org/2000/svg" xmlns:xlink="http://www.w3.org/1999/xlink" x="0px" y="0px"
	 viewBox="0 0 492 492" style="enable-background:new 0 0 492 492;" xml:space="preserve">
<style type="text/css">
	.st0{fill:#4B4439;}
	.st1{fill-rule:evenodd;clip-rule:evenodd;fill:#F5F5F5;}
	.st2{fill-rule:evenodd;clip-rule:evenodd;fill:#FFCCBC;}
	.st3{fill-rule:evenodd;clip-rule:evenodd;fill:#E0E0E0;}
	.st4{fill-rule:evenodd;clip-rule:evenodd;fill:#A9A9A9;}
	.st5{fill-rule:evenodd;clip-rule:evenodd;fill:#C09A8E;}
</style>
<g id="Layer_1">
	<path class="st0" d="M174.49,229.56h10.62v12.02h11.61v-12.02h10.66v34.36h-10.66v-13.9h-11.61v13.9h-10.62V229.56L174.49,229.56z
		 M212.02,229.56h32.27v8.49h-10.83v25.87h-10.62v-25.87h-10.82V229.56L212.02,229.56z M248.98,229.56h13.97l5.39,20.9l5.37-20.9
		h13.92v34.36h-8.67v-26.2l-6.73,26.2h-7.85l-6.7-26.2v26.2h-8.7V229.56L248.98,229.56z M294.4,229.56h10.62v25.9h16.57v8.46H294.4
		V229.56z"/>
	<path class="st1" d="M155.83,199.85h180.85c3.78,0,7.22,1.54,9.71,4.03c2.49,2.49,4.03,5.92,4.03,9.71v66.3
		c0,3.78-1.54,7.22-4.03,9.71c-2.49,2.49-5.92,4.03-9.71,4.03H155.83c-3.78,0-7.22-1.54-9.71-4.03c-2.49-2.49-4.03-5.92-4.03-9.71
		v-66.3c0-3.78,1.54-7.22,4.03-9.71C148.61,201.4,152.05,199.85,155.83,199.85L155.83,199.85z M377.49,417.81V147.76h-67.67
		c-3.18,0-5.76-2.58-5.76-5.76V73.92l-187.3,0v0.02c-0.47,0-0.9,0.2-1.22,0.51c-0.32,0.32-0.51,0.75-0.51,1.22v342.13
		c0,0.47,0.2,0.9,0.51,1.22c0.32,0.32,0.75,0.51,1.22,0.51h259c0.47,0,0.9-0.2,1.22-0.51C377.3,418.71,377.49,418.28,377.49,417.81z
		"/>
	<path class="st2" d="M336.69,211.37H155.83c-0.6,0-1.16,0.25-1.56,0.66c-0.4,0.41-0.66,0.96-0.66,1.56v66.3
		c0,0.6,0.25,1.16,0.66,1.56c0.41,0.4,0.96,0.66,1.56,0.66h180.85c0.6,0,1.16-0.25,1.56-0.66c0.41-0.41,0.66-0.96,0.66-1.56v-66.3
		c0-0.6-0.25-1.16-0.66-1.56C337.84,211.62,337.29,211.37,336.69,211.37L336.69,211.37z M174.49,229.56h10.62v12.02h11.61v-12.02
		h10.66v34.36h-10.66v-13.9h-11.61v13.9h-10.62V229.56L174.49,229.56z M212.02,229.56h32.27v8.49h-10.83v25.87h-10.62v-25.87h-10.82
		V229.56L212.02,229.56z M248.98,229.56h13.97l5.39,20.9l5.37-20.9h13.92v34.36h-8.67v-26.2l-6.73,26.2h-7.85l-6.7-26.2v26.2h-8.7
		V229.56L248.98,229.56z M294.4,229.56h10.62v25.9h16.57v8.46H294.4V229.56z"/>
	<polygon class="st3" points="315.58,82.12 315.58,136.24 369.42,136.24 	"/>
	<path class="st4" d="M367.01,147.76V417.8c0,0.59-0.03,1.17-0.08,1.73h9.31c0.34,0,0.65-0.2,0.88-0.51
		c0.23-0.32,0.37-0.75,0.37-1.22V147.76H367.01z"/>
	<polygon class="st4" points="315.58,91.95 359.64,136.24 369.42,136.24 315.58,82.11 	"/>
	<path class="st5" d="M325.53,213.59v66.3c0,0.75-0.06,1.5-0.18,2.22h11.34c0.6,0,1.16-0.25,1.56-0.66
		c0.41-0.41,0.66-0.96,0.66-1.56v-66.3c0-0.6-0.25-1.16-0.66-1.56c-0.41-0.4-0.96-0.66-1.56-0.66h-11.34
		C325.46,212.09,325.53,212.83,325.53,213.59z"/>
	<path class="st4" d="M336.69,292.97H155.83c-0.76,0-1.5-0.15-2.22-0.43v2.03c0,1.43,0.25,2.74,0.66,3.7
		c0.41,0.96,0.96,1.56,1.56,1.56h180.85c0.6,0,1.16-0.6,1.56-1.56c0.41-0.96,0.66-2.27,0.66-3.7v-2.03
		C338.18,292.83,337.44,292.97,336.69,292.97z"/>
	<g>
		<path class="st0" d="M389.01,142v275.8c0,3.65-1.49,6.97-3.89,9.36c-2.4,2.4-5.71,3.89-9.37,3.89h-259
			c-3.65,0-6.97-1.49-9.36-3.89c-2.4-2.4-3.89-5.71-3.89-9.36V75.67c0-3.65,1.49-6.97,3.89-9.37c2.4-2.4,5.71-3.89,9.36-3.89v0.02
			l192.56,0c0.17-0.01,0.34-0.02,0.51-0.02c1.75,0,3.32,0.78,4.38,2.02l72.82,73.21C388.24,138.7,389.01,140.26,389.01,142
			L389.01,142z M377.49,417.81V147.76h-67.67c-3.18,0-5.76-2.58-5.76-5.76V73.92l-187.3,0v0.02c-0.47,0-0.9,0.2-1.22,0.51
			c-0.32,0.32-0.51,0.75-0.51,1.22v342.13c0,0.47,0.2,0.9,0.51,1.22c0.32,0.32,0.75,0.51,1.22,0.51h259c0.47,0,0.9-0.2,1.22-0.51
			C377.3,418.71,377.49,418.28,377.49,417.81L377.49,417.81z M315.58,82.12v54.13h53.84L315.58,82.12z"/>
		<path class="st0" d="M155.83,199.85h180.85c3.78,0,7.22,1.54,9.71,4.03c2.49,2.49,4.03,5.92,4.03,9.71v66.3
			c0,3.78-1.54,7.22-4.03,9.71c-2.49,2.49-5.92,4.03-9.71,4.03H155.83c-3.78,0-7.22-1.54-9.71-4.03c-2.49-2.49-4.03-5.92-4.03-9.71
			v-66.3c0-3.78,1.54-7.22,4.03-9.71C148.61,201.4,152.05,199.85,155.83,199.85L155.83,199.85z M336.69,211.37H155.83
			c-0.6,0-1.16,0.25-1.56,0.66c-0.4,0.41-0.66,0.96-0.66,1.56v66.3c0,0.6,0.25,1.16,0.66,1.56c0.41,0.4,0.96,0.66,1.56,0.66h180.85
			c0.6,0,1.16-0.25,1.56-0.66c0.41-0.41,0.66-0.96,0.66-1.56v-66.3c0-0.6-0.25-1.16-0.66-1.56
			C337.84,211.62,337.29,211.37,336.69,211.37z"/>
	</g>
</g>
<g id="Master_Layer_7">
</g>
</svg>
