<?xml version="1.0" encoding="utf-8"?>
<!-- Generator: Adobe Illustrator 25.0.1, SVG Export Plug-In . SVG Version: 6.00 Build 0)  -->
<svg version="1.1" xmlns="http://www.w3.org/2000/svg" xmlns:xlink="http://www.w3.org/1999/xlink" x="0px" y="0px"
	 viewBox="0 0 492 492" style="enable-background:new 0 0 492 492;" xml:space="preserve">
<style type="text/css">
	.st0{fill-rule:evenodd;clip-rule:evenodd;fill:#FFA000;}
	.st1{fill-rule:evenodd;clip-rule:evenodd;fill:#FFD791;}
	.st2{fill-rule:evenodd;clip-rule:evenodd;fill:#85580A;}
	.st3{fill-rule:evenodd;clip-rule:evenodd;fill:#FFFFFE;}
</style>
<g id="Layer_1">
	<path class="st0" d="M138.7,431.06h215.13c16.86,0,30.66-13.8,30.66-30.66V93.08c0-16.86-13.8-30.66-30.66-30.66H196.31
		l-88.28,88.28v249.7C108.04,417.26,121.83,431.06,138.7,431.06z"/>
	<path class="st1" d="M108.04,150.7h57.62c16.86,0,30.66-13.8,30.66-30.66V62.42L108.04,150.7z"/>
	<path class="st2" d="M146.52,231.76H346c8.92,0,16.22,7.3,16.22,16.22v85.79c0,8.92-7.3,16.22-16.22,16.22H146.52
		c-8.92,0-16.22-7.3-16.22-16.22v-85.79C130.3,239.06,137.6,231.76,146.52,231.76z"/>
	<g>
		<path class="st3" d="M233.27,312.01c2.84-1.92,4.72-4.27,5.66-7.03c0.94-2.77,1.42-6.79,1.42-12.09v-25.22h-14.37v28.61
			c0,2.82-0.38,4.83-1.12,6.03c-0.76,1.19-1.93,1.78-3.53,1.78c-1.02,0-1.79-0.19-2.34-0.61c-0.8-0.6-1.37-1.4-1.71-2.4
			c-0.33-0.99-0.52-2.52-0.54-4.56l-13.7,1.87c0.25,3.59,1.08,6.6,2.48,9.03c1.39,2.44,3.38,4.29,5.96,5.55
			c2.57,1.27,6.2,1.9,10.89,1.9C226.8,314.88,230.43,313.92,233.27,312.01z"/>
		<path class="st3" d="M247.39,298.71c0.4,4.69,2.12,8.54,5.16,11.58c3.04,3.05,8.5,4.56,16.39,4.56c4.49,0,8.22-0.65,11.17-1.94
			c2.96-1.3,5.26-3.2,6.9-5.71c1.64-2.51,2.47-5.25,2.47-8.22c0-2.54-0.63-4.83-1.86-6.87c-1.23-2.05-3.21-3.76-5.92-5.14
			c-2.71-1.38-7.19-2.75-13.46-4.1c-2.54-0.53-4.14-1.09-4.82-1.71c-0.69-0.59-1.04-1.25-1.04-1.99c0-1.01,0.42-1.88,1.26-2.58
			c0.84-0.71,2.1-1.06,3.77-1.06c2.02,0,3.61,0.48,4.75,1.42c1.16,0.95,1.91,2.47,2.27,4.56l13.51-0.79
			c-0.59-4.81-2.44-8.32-5.55-10.52c-3.11-2.2-7.64-3.31-13.57-3.31c-4.83,0-8.63,0.6-11.41,1.81c-2.78,1.22-4.85,2.88-6.23,5
			c-1.38,2.12-2.07,4.38-2.07,6.76c0,3.63,1.35,6.61,4.05,8.95c2.68,2.34,7.16,4.21,13.45,5.63c3.85,0.84,6.29,1.74,7.34,2.69
			c1.06,0.95,1.58,2.03,1.58,3.23c0,1.26-0.55,2.38-1.65,3.34c-1.11,0.96-2.69,1.44-4.73,1.44c-2.74,0-4.86-0.93-6.33-2.81
			c-0.91-1.17-1.51-2.85-1.8-5.07L247.39,298.71z"/>
	</g>
</g>
<g id="Master_Layer_8">
</g>
</svg>
