<?xml version="1.0" encoding="utf-8"?>
<!-- Generator: Adobe Illustrator 25.0.1, SVG Export Plug-In . SVG Version: 6.00 Build 0)  -->
<svg version="1.1" id="Layer_1" xmlns="http://www.w3.org/2000/svg" xmlns:xlink="http://www.w3.org/1999/xlink" x="0px" y="0px"
	 viewBox="0 0 5000 5000" style="enable-background:new 0 0 5000 5000;" xml:space="preserve">
<style type="text/css">
	.st0{fill:#1CECF7;}
	.st1{fill:#383838;}
</style>
<rect class="st0" width="5000" height="5000"/>
<g>
	<path class="st1" d="M2426.09,2119.09c44.44,2.74,99.66-5.27,153.86,8.21c72.72,18.09,122.21,79.45,127.99,154.17
		c4.11,53.13-4.84,101.01-40.58,142.14c-24.15,27.79-54.47,44.9-90.11,52.8c-22.25,4.93-23.36,6.53-11.36,24.62
		c45.11,68.03,90.47,135.89,135.38,204.05c4.15,6.3,12.05,13.37,7.64,21.37c-4.06,7.37-13.5,3.47-20.5,3.46
		c-65.39-0.1-64.65-0.65-99.82-57.37c-35.26-56.86-72.48-112.5-108.2-169.08c-7.38-11.7-16.29-16.23-29.72-15.92
		c-26.12,0.6-52.28,0.76-78.39-0.1c-17.14-0.57-23.89,5.55-23.66,23.3c0.84,64.3,0.53,128.62,0.61,192.94
		c0.03,25.37-0.83,26.19-25.67,26.08c-53.19-0.23-53.29-0.23-52.93-55.99c0.51-78.24,1.71-156.48,1.66-234.71
		c-0.06-96.37-1.18-192.73-1.68-289.1c-0.15-28.9,2.06-30.86,30.63-30.86C2339.44,2119.09,2377.64,2119.09,2426.09,2119.09z
		 M2349.08,2303.3c0,32.13,0.51,64.27-0.23,96.38c-0.33,14.48,4.66,20.91,19.49,20.77c46.86-0.43,93.74,0.48,140.57-0.66
		c31.86-0.77,63.83-6.27,86.45-31c32.92-36,45.92-78.65,28.34-126.01c-18.27-49.23-56.02-73.88-107.9-75.24
		c-48.84-1.28-97.74-0.1-146.6-0.76c-14.86-0.2-20.44,5.71-20.24,20.14C2349.4,2239.04,2349.1,2271.17,2349.08,2303.3z"/>
	<path class="st1" d="M3025.74,2531.91c-51.61,0-103.23-0.08-154.84,0.04c-22.81,0.05-25.6,4.01-20.35,26.36
		c29.64,126.23,159.83,150.33,250.23,98.94c6.4-3.64,12.39-8,18.84-11.53c8.22-4.5,13.52-19.46,24.74-12.17
		c12.2,7.93,19.94,21.63,26.36,34.78c3.51,7.18-4.52,11.83-9.32,16.12c-30.81,27.5-67.12,44.72-107.53,50.85
		c-60.72,9.22-120.61,6.51-175.28-25.88c-62.95-37.3-95.02-95.8-103.7-165.97c-11.27-91.12,14.41-170.45,90.79-226.7
		c109.08-80.32,290.1-47.91,330.99,125.44c5.24,22.23,7.52,44.8,8.43,67.62c0.66,16.5-6,22.63-22.51,22.43
		c-52.27-0.64-104.56-0.24-156.85-0.24C3025.74,2531.99,3025.74,2531.95,3025.74,2531.91z M2990.92,2480.96
		c41.51,0,83.02-0.37,124.53,0.2c15.2,0.21,19.84-5.68,18.62-20.53c-5.5-66.88-67.42-126.12-133.02-127.98
		c-93.01-2.63-142.62,65.91-152.81,125.52c-2.76,16.13,2.77,23.41,20.17,23.08C2909.23,2480.48,2950.08,2481,2990.92,2480.96z"/>
	<path class="st1" d="M3590.59,2686.32c-6.26-0.43-9.26,2.31-12.24,4.98c-44.1,39.53-96.6,52.24-154.25,47.89
		c-67.13-5.06-130.22-65.89-133.87-128.69c-4.94-84.84,37.68-142.65,116.41-157.47c62.41-11.74,120.09-3.42,169.08,40.77
		c3.47,3.13,7.75,6.82,12.35,5.31c5.67-1.85,3.63-7.96,3.69-12.33c0.27-16.75,0.53-33.52,0.1-50.26
		c-1.43-55.75-33.06-91.79-88.46-98.78c-53.23-6.72-100.96,7.02-141.59,42.93c-18.31,16.18-18.24,16.19-32.23-5.09
		c-2.94-4.47-6.24-8.72-9.41-13.04c-6.77-9.22-5.21-16.98,3.2-24.58c54.62-49.35,119.23-66.97,191.37-60.23
		c35.83,3.35,69.74,12.26,98.32,36.04c32.83,27.32,46.56,63.23,46.81,104.63c0.57,97.18,0.14,194.37,0.76,291.55
		c0.1,15.29-6.2,19.53-20.27,20.07C3595.61,2731.75,3595.62,2732.13,3590.59,2686.32z M3591.7,2587.49
		c10.41-35.01-14.21-54.94-45.37-71.68c-38.19-20.52-77.54-22.27-118.76-11.06c-31.06,8.45-55.31,24.9-61.94,57.24
		c-8.24,40.21-6.23,79.03,32.11,106.18c29.74,21.06,63.14,22.73,97.98,21.65C3551,2688.09,3592.35,2647.5,3591.7,2587.49z"/>
	<path class="st1" d="M3772.61,2500.92c-0.57-87.99,37.49-154.72,113.09-198.87c77.66-45.36,191.12-31.38,250.44,28.85
		c19.45,19.75,19.33,23.62-1.27,41.02c-24.22,20.45-24.22,20.45-48.9-0.39c-84.52-71.36-215.05-24.28-236.34,84.69
		c-11.06,56.6-8.39,110.11,25.15,159.64c49.44,73,154.21,84.79,217.11,22.72c12.74-12.57,20.29-14.58,34.29-2
		c30.99,27.83,32.13,27.51,2.24,55.46c-49.23,46.03-109.62,55.05-172.56,44.63C3841.77,2717.76,3773.36,2627.8,3772.61,2500.92z"/>
	<path class="st1" d="M4264.34,2508.69c0-46.2-0.57-92.42,0.3-138.6c0.32-16.85-5.95-23.55-22.25-21.98
		c-3.31,0.32-6.69,0.02-10.04-0.04c-47.24-0.85-40.73,7.69-41.39-46.31c-0.13-10.56,4.98-14.31,14.75-14.19
		c12.72,0.16,25.53-0.9,38.15,0.23c16.48,1.47,21.03-6.01,20.62-21.14c-0.73-26.76,0.24-53.58-0.43-80.34
		c-0.37-14.7,5.32-20.41,20.07-20.07c59.5,1.37,48.13-6.4,49.09,46.48c0.34,18.74,0.14,37.5,0,56.24
		c-0.1,13.48,6.18,19.33,19.82,18.85c17.39-0.61,34.82-0.1,52.23-0.28c12.88-0.13,21.37,3.48,17.46,18.81
		c-0.33,1.28-0.37,2.65-0.46,3.98c-2.43,37.85-2.43,37.57-42.17,37.92c-54.04,0.47-47.13-6.8-46.69,46.86
		c0.65,78.98-2.69,158,2.22,236.93c2.35,37.8,32.89,55.77,68.02,41.22c7.95-3.29,17.44-16.91,26.36,0.43
		c16.3,31.68,16.46,40.91-2.52,51.25c-38.46,20.94-78.13,22.18-117.6,3.56c-34.84-16.44-44.71-47.88-45.19-83.2
		c-0.62-45.53-0.15-91.07-0.15-136.6C4264.48,2508.69,4264.41,2508.69,4264.34,2508.69z"/>
	<path class="st1" d="M1649.4,2116.95c0.94,45.79-4.35,90.99-15.56,135.27c-4.55,17.98,1.22,25.43,17.96,30.53
		c71,21.64,138.03,51.53,195.57,99.62c27.1,22.65,50.04,48.98,60.3,83.5c13.85,46.61-0.28,86.99-31.1,122.62
		c-51.65,59.73-119.78,93.77-191.92,120.54c-50.56,18.75-50.36,17.32-41.6,69.53c11.83,70.49,16.09,141.28-3.15,211.18
		c-15.03,54.58-43.11,99.5-104.26,109.31c-42.63,6.84-84.07-3.08-123.13-21.1c-56.4-26-107.24-60.33-152.32-103.18
		c-21.3-20.24-22.53-19.56-43.86-0.15c-61.66,56.13-129.79,101.69-212.14,121.21c-89.12,21.12-155.05-22.29-174.12-111.62
		c-15.87-74.31-9.69-147.81,5.73-221.11c7.07-33.6,7.68-33.76-25.23-44.26c-55.88-17.82-108.84-41.65-156.34-76.36
		c-24.32-17.77-47.56-36.82-65.5-61.66c-52.58-72.79-33.59-133.8,26.03-190.18c55.54-52.52,124-83.21,196.29-105.76
		c32.74-10.21,32.81-10.38,25.19-42.96c-16.04-68.51-20.08-137.77-10.12-207.4c4.58-32.05,15.51-62.48,35.94-88.41
		c28.63-36.33,67.12-50.69,112-44.8c96,12.6,171.14,65.64,240.82,128.13c20.62,18.49,20.17,19,40.68,0.84
		c51.84-45.91,106.17-88.05,171.81-113.04c41.35-15.74,82.88-26.47,127.1-10.88c42.58,15.01,64.17,47.98,78.72,87.89
		C1647.67,2034.03,1650.55,2075.2,1649.4,2116.95z M1233.83,2284.33c0,0.18,0,0.36,0,0.54c-31.47,0-62.96,0.77-94.4-0.28
		c-20.11-0.67-32.13,8.78-42.32,24.71c-35.36,55.28-68.08,112-98.19,170.32c-7.65,14.82-8.16,28.12-0.89,41.9
		c32.13,60.99,66.15,120.91,104.47,178.29c6.19,9.27,13.6,16.11,25.98,15.99c71.45-0.7,142.9,6.5,214.36-0.12
		c10.64-0.99,19.49-4.2,25.38-13.62c37.95-60.7,75.1-121.84,106.9-186.07c5.47-11.05,5.08-21.04-0.56-32.3
		c-30.63-61.11-66-119.44-102.29-177.25c-9.71-15.47-23.39-22.65-42-22.28C1298.13,2284.79,1265.97,2284.33,1233.83,2284.33z
		 M922.63,2498.87c-0.37-1.5-0.69-4.93-2.02-7.93c-21.4-48.34-41.64-97.12-57.63-147.57c-3.02-9.54-9.65-12.04-18.92-8.99
		c-13.98,4.6-28.27,8.38-41.98,13.66c-58.96,22.69-116.19,48.42-159.87,96.47c-35.06,38.57-34.02,75.52,1.76,113.38
		c54.78,57.97,124.98,88.07,198.82,111.97c12.9,4.18,17.92-2.35,21.67-13.51c14.69-43.75,30.85-86.96,49.34-129.28
		C917.51,2518.6,923,2510.57,922.63,2498.87z M1592.16,2111.69c1.21-23.97-1.81-51.87-7.48-79.45
		c-13.22-64.34-57.42-89.06-118.75-68.13c-68.66,23.44-124.28,66.77-177.64,113.79c-7.87,6.94-10.66,13.96-1.56,23.62
		c33.5,35.57,64.1,73.57,91.69,113.95c8.89,13.02,20.91,18.83,37.08,20.1c45.33,3.57,90.33,10.52,134.54,21.1
		c17.46,4.18,24.62-0.62,28-17.45C1586.24,2198.49,1592.52,2157.63,1592.16,2111.69z M876.41,2888.74
		c2.87,29.21,3.24,59.24,11.43,88.66c16.17,58.08,50.43,78.07,108.86,62.03c74.49-20.45,134.46-64.43,189.81-116.19
		c9.32-8.72,7.68-14.27-0.24-22.96c-33.38-36.58-64.96-74.67-93.04-115.55c-5.91-8.6-13.32-14.16-24.45-15.5
		c-51.79-6.24-103.77-11.35-154.83-22.64c-11.79-2.61-16.48,3.48-19.23,14.48C884.32,2802.79,879.2,2845.17,876.41,2888.74z
		 M876.76,2109.92c2.65,45.6,8.88,89.87,18.41,133.77c2.98,13.72,8.73,17.11,22.43,13.84c44.96-10.74,90.7-16.98,136.67-21.82
		c10.9-1.15,22.84-1.17,30.97-11.64c32.42-41.75,63.31-84.76,100.34-122.79c7.9-8.12,7.05-15.81-2.93-23.4
		c-14.88-11.32-28.16-24.73-42.93-36.22c-48.45-37.7-99.53-70.29-161.44-81.66c-42.09-7.73-69.83,8.64-84.91,48.14
		C880.66,2041.43,879.73,2076.05,876.76,2109.92z M1593.99,2887.26c0.39-45.06-5.26-86-14.71-126.59
		c-2.96-12.7-7.62-18.8-21.84-15.55c-48.32,11.02-97.36,17.78-146.66,22.4c-14.77,1.38-24.24,8.75-32.33,20.53
		c-26.91,39.2-55.32,77.3-88.79,111.24c-10.25,10.4-8.22,18.38,1.86,26.74c9.26,7.69,18.27,15.67,27.43,23.47
		c49.34,42.08,102.13,77.99,166.8,92.35c45.79,10.17,79.21-8.81,93.83-53.1C1590.83,2954.69,1595.76,2919.76,1593.99,2887.26z
		 M1854.65,2500.15c-2.09-34.51-24.37-55.94-48.29-75.74c-51.44-42.59-111.97-67.37-174.8-87.45c-12.56-4.02-20.08-0.98-24.21,12.45
		c-14.59,47.38-34.11,92.88-54.44,138.02c-3.52,7.81-4.42,14.85-0.6,22.96c21.98,46.64,41.61,94.25,57.71,143.26
		c4.36,13.26,13.1,15.78,25.13,11.52c13.24-4.7,26.59-9.16,39.63-14.38c58.16-23.29,113.55-50.97,156.18-98.88
		C1844.3,2536.87,1852.06,2519.58,1854.65,2500.15z M1458.21,2296.14c-8.88,1.16-15.77-2.33-19.65,4.18
		c-2.4,4.03,1.52,7.35,3.47,10.71c20.81,35.71,41.73,71.35,62.33,107.19c6.47,11.25,11.88,12.38,16.85-0.61
		c10.96-28.63,21.84-57.3,32.51-86.04c3.64-9.82,1.43-16.89-10.25-19.07C1514.01,2307,1484.61,2301.23,1458.21,2296.14z
		 M1451.92,2707.07c32.09-5.98,64.23-11.7,96.24-18.08c9.53-1.9,10.37-9.24,7.33-17.23c-10.89-28.66-21.73-57.34-32.94-85.87
		c-1.8-4.59-2.99-11.23-9.99-10.8c-5.4,0.34-6.81,5.78-9.08,9.73c-20.26,35.24-40.13,70.7-60.92,105.63
		C1435.04,2703.08,1437.8,2707.28,1451.92,2707.07z M1235.07,2227.52c21.35,0,42.7,0.06,64.05-0.03c9.05-0.04,16.14-3.05,8.39-12.77
		c-19.91-24.99-40.67-49.3-61.22-73.78c-5.81-6.93-12.5-7.68-18.66-0.56c-21.34,24.67-42.72,49.32-63.58,74.4
		c-6.79,8.17-4.4,12.96,6.97,12.78C1192.37,2227.23,1213.73,2227.47,1235.07,2227.52z M1019.51,2707.08
		c11.92,1.23,18.51-1.79,10.56-15.33c-21.34-36.36-42.73-72.68-63.99-109.08c-5.97-10.22-10.34-8.85-14.21,1.39
		c-10.89,28.8-21.97,57.52-32.73,86.37c-4.53,12.15,1.02,20.29,12.7,22.47C960.77,2698.28,989.45,2705.33,1019.51,2707.08z
		 M1235.06,2774.76c0,0.05,0,0.1,0,0.15c-20.11,0-40.22-0.05-60.33,0.02c-8.5,0.03-16.97,1.79-8.78,12.25
		c19.79,25.26,40.41,49.89,61.07,74.45c6.84,8.13,15.04,8.68,22.12-0.08c19.34-23.94,38.52-48,57.61-72.13
		c7.7-9.73,4.43-14.57-7.34-14.62C1277.96,2774.69,1256.51,2774.76,1235.06,2774.76z M1033.37,2303.59
		c-1.72-9.13-8.2-7.21-12.83-6.49c-30.92,4.83-61.79,9.96-92.62,15.35c-12.27,2.14-11.99,10.74-8.62,19.88
		c10.39,28.13,20.85,56.24,31.63,84.22c1.52,3.94,1.71,10.47,7.77,10.24c5.24-0.2,6.63-5.91,8.92-9.88
		c20.35-35.19,40.69-70.39,61.05-105.58C1030.3,2308.51,1032.05,2305.76,1033.37,2303.59z"/>
	<path class="st1" d="M1355.64,2499.56c0.29,67.03-53.12,119.18-122.15,119.28c-64.27,0.09-118.73-54.86-118.51-119.57
		c0.23-66.72,54.26-119.17,122.87-119.26C1302.3,2379.92,1355.36,2433.77,1355.64,2499.56z"/>
</g>
</svg>
